<svg width="26" height="26" viewBox="0 0 26 26" fill="none" xmlns="http://www.w3.org/2000/svg">
<path d="M14.0356 0.422453C14.9573 0.418916 15.879 0.428179 16.8005 0.450241L17.0455 0.459083C17.3285 0.469188 17.6076 0.481819 17.9449 0.496976C19.2888 0.560132 20.2058 0.772336 21.0104 1.08433C21.844 1.40516 22.5463 1.83967 23.2486 2.54196C23.8907 3.17302 24.3877 3.93637 24.7049 4.77894C25.0169 5.58354 25.2291 6.50182 25.2923 7.84578C25.3074 8.18177 25.3201 8.46218 25.3302 8.74512L25.3377 8.99016C25.3602 9.91121 25.3699 10.8325 25.3668 11.7539L25.3681 12.6961V14.3508C25.3712 15.2726 25.3615 16.1943 25.339 17.1158L25.3314 17.3608C25.3213 17.6438 25.3087 17.9229 25.2935 18.2602C25.2304 19.6041 25.0157 20.5211 24.7049 21.3257C24.3887 22.1692 23.8916 22.9332 23.2486 23.564C22.617 24.206 21.8533 24.703 21.0104 25.0204C20.2058 25.3323 19.2888 25.5445 17.9449 25.6077C17.6076 25.6229 17.3285 25.6355 17.0455 25.6456L16.8005 25.6532C15.879 25.6756 14.9573 25.6853 14.0356 25.6822L13.0933 25.6835H11.4399C10.5182 25.6866 9.59648 25.6769 8.67502 25.6544L8.42998 25.6469C8.13014 25.636 7.83036 25.6234 7.53066 25.609C6.18673 25.5458 5.26972 25.3311 4.46387 25.0204C3.62099 24.7037 2.85751 24.2067 2.22693 23.564C1.58407 22.9328 1.08664 22.1689 0.769322 21.3257C0.457338 20.5211 0.245138 19.6041 0.181983 18.2602C0.167916 17.9604 0.155285 17.6607 0.14409 17.3608L0.137775 17.1158C0.114488 16.1943 0.103961 15.2726 0.106198 14.3508V11.7539C0.102672 10.8325 0.111936 9.91122 0.133986 8.99016L0.142827 8.74512C0.152932 8.46218 0.165563 8.18177 0.18072 7.84578C0.243875 6.50056 0.456074 5.5848 0.768058 4.77894C1.08557 3.93596 1.58397 3.17282 2.22819 2.54322C2.85834 1.89998 3.62134 1.40209 4.46387 1.08433C5.26972 0.772336 6.18546 0.560132 7.53066 0.496976L8.42998 0.459083L8.67502 0.452768C9.59605 0.429492 10.5174 0.418965 11.4387 0.42119L14.0356 0.422453ZM12.7371 6.73803C11.9003 6.72619 11.0695 6.88079 10.293 7.19283C9.51649 7.50488 8.80973 7.96815 8.2138 8.55572C7.61787 9.14329 7.14466 9.84344 6.82167 10.6155C6.49868 11.3875 6.33235 12.2161 6.33235 13.053C6.33235 13.8899 6.49868 14.7184 6.82167 15.4905C7.14466 16.2625 7.61787 16.9627 8.2138 17.5502C8.80973 18.1378 9.51649 18.6011 10.293 18.9131C11.0695 19.2252 11.9003 19.3797 12.7371 19.3679C14.4121 19.3679 16.0185 18.7025 17.2028 17.5181C18.3872 16.3337 19.0526 14.7273 19.0526 13.0523C19.0526 11.3773 18.3872 9.77095 17.2028 8.58655C16.0185 7.40215 14.4121 6.73803 12.7371 6.73803ZM12.7371 9.26426C13.2405 9.25498 13.7406 9.3461 14.2084 9.5323C14.6761 9.71849 15.1021 9.99603 15.4613 10.3487C15.8206 10.7014 16.106 11.1221 16.3009 11.5863C16.4957 12.0505 16.5961 12.5489 16.5962 13.0523C16.5963 13.5558 16.4961 14.0542 16.3014 14.5185C16.1067 14.9827 15.8214 15.4036 15.4622 15.7563C15.1031 16.1091 14.6772 16.3868 14.2095 16.5732C13.7419 16.7595 13.2417 16.8508 12.7384 16.8417C11.7334 16.8417 10.7696 16.4425 10.059 15.7318C9.34834 15.0212 8.94911 14.0573 8.94911 13.0523C8.94911 12.0473 9.34834 11.0835 10.059 10.3729C10.7696 9.66223 11.7334 9.26299 12.7384 9.26299L12.7371 9.26426ZM19.3684 4.84335C18.9609 4.85966 18.5755 5.03301 18.293 5.32709C18.0104 5.62117 17.8526 6.01317 17.8526 6.42099C17.8526 6.8288 18.0104 7.2208 18.293 7.51488C18.5755 7.80896 18.9609 7.98231 19.3684 7.99862C19.7871 7.99862 20.1887 7.83227 20.4848 7.53617C20.7809 7.24007 20.9472 6.83847 20.9472 6.41972C20.9472 6.00097 20.7809 5.59938 20.4848 5.30328C20.1887 5.00718 19.7871 4.84083 19.3684 4.84083V4.84335Z" fill="#C59335"/>
</svg>
