<svg width="3" height="592" viewBox="0 0 3 592" fill="none" xmlns="http://www.w3.org/2000/svg">
<path d="M2.99999 574.337C2.99999 572.967 2.32844 571.855 1.50001 571.855C0.671583 571.855 -1.68407e-07 572.967 -1.0849e-07 574.337C-4.85726e-08 575.708 0.671583 576.819 1.50001 576.819C2.32844 576.819 2.99999 575.708 2.99999 574.337Z" fill="#C59335"/>
<path d="M2.99999 536.943C2.99999 535.572 2.32844 534.461 1.50001 534.461C0.671583 534.461 -1.68407e-07 535.572 -1.0849e-07 536.943C-4.85724e-08 538.314 0.671583 539.425 1.50001 539.425C2.32844 539.425 2.99999 538.314 2.99999 536.943Z" fill="#C59335"/>
<path d="M2.99999 588.58C2.99999 587.209 2.32844 586.098 1.50001 586.098C0.671583 586.098 -1.68407e-07 587.209 -1.0849e-07 588.58C-4.85726e-08 589.95 0.671583 591.062 1.50001 591.062C2.32844 591.062 2.99999 589.95 2.99999 588.58Z" fill="#C59335"/>
<path d="M2.99999 308.445C2.99999 307.074 2.32844 305.963 1.50001 305.963C0.671583 305.963 -1.68408e-07 307.074 -1.0849e-07 308.445C-4.85731e-08 309.816 0.671583 310.927 1.50001 310.927C2.32844 310.927 2.99999 309.816 2.99999 308.445Z" fill="#C59335"/>
<path d="M2.99999 321.227C2.99999 319.856 2.32844 318.745 1.50001 318.745C0.671583 318.745 -1.68408e-07 319.856 -1.0849e-07 321.227C-4.85731e-08 322.598 0.671583 323.709 1.50001 323.709C2.32844 323.709 2.99999 322.598 2.99999 321.227Z" fill="#C59335"/>
<path d="M2.99999 282.301C2.99999 280.93 2.32844 279.819 1.50001 279.819C0.671583 279.819 -1.68408e-07 280.93 -1.0849e-07 282.301C-4.85731e-08 283.672 0.671583 284.783 1.50001 284.783C2.32844 284.783 2.99999 283.672 2.99999 282.301Z" fill="#C59335"/>
<path d="M2.99999 295.083C2.99999 293.712 2.32844 292.601 1.50001 292.601C0.671583 292.601 -1.68406e-07 293.712 -1.08489e-07 295.083C-4.85718e-08 296.453 0.671583 297.564 1.50001 297.564C2.32844 297.564 2.99999 296.453 2.99999 295.083Z" fill="#C59335"/>
<path d="M2.99999 119.964C2.99999 118.594 2.32844 117.482 1.50001 117.482C0.671583 117.482 -1.68408e-07 118.594 -1.0849e-07 119.964C-4.85731e-08 121.335 0.671583 122.446 1.50001 122.446C2.32844 122.446 2.99999 121.335 2.99999 119.964Z" fill="#C59335"/>
<path d="M2.99999 83.7514C2.99999 82.3807 2.32844 81.2695 1.50001 81.2695C0.671583 81.2695 -1.68408e-07 82.3807 -1.0849e-07 83.7514C-4.85731e-08 85.1222 0.671583 86.2334 1.50001 86.2334C2.32844 86.2334 2.99999 85.1222 2.99999 83.7514Z" fill="#C59335"/>
<path d="M2.99999 132.746C2.99999 131.375 2.32844 130.264 1.50001 130.264C0.671583 130.264 -1.68406e-07 131.375 -1.08489e-07 132.746C-4.85718e-08 134.116 0.671583 135.228 1.50001 135.228C2.32844 135.228 2.99999 134.116 2.99999 132.746Z" fill="#C59335"/>
<path d="M2.99999 334.17C2.99999 332.8 2.32844 331.688 1.50001 331.688C0.671583 331.688 -1.68408e-07 332.8 -1.0849e-07 334.17C-4.85731e-08 335.541 0.671583 336.652 1.50001 336.652C2.32844 336.652 2.99999 335.541 2.99999 334.17Z" fill="#C59335"/>
<path d="M-7.67244e-07 454.283L-4.58642e-08 470.787C-2.05342e-08 471.366 0.283902 471.836 0.634121 471.836L2.36587 471.836C2.71609 471.836 2.99999 471.366 2.99999 470.787L2.99999 454.283C2.99999 453.704 2.71609 453.234 2.36587 453.234L0.63412 453.234C0.283902 453.234 -7.92574e-07 453.704 -7.67244e-07 454.283Z" fill="#C59335"/>
<path d="M-7.67244e-07 347.074L-4.58636e-08 363.578C-2.05336e-08 364.157 0.283902 364.627 0.634121 364.627L2.36587 364.627C2.71609 364.627 2.99999 364.157 2.99999 363.578L2.99999 347.074C2.99999 346.495 2.71609 346.025 2.36587 346.025L0.63412 346.025C0.283902 346.025 -7.92574e-07 346.495 -7.67244e-07 347.074Z" fill="#C59335"/>
<path d="M-7.67244e-07 252.984L-4.58636e-08 269.487C-2.05336e-08 270.066 0.283902 270.536 0.634121 270.536L2.36587 270.536C2.71609 270.536 2.99999 270.066 2.99999 269.487L2.99999 252.984C2.99999 252.404 2.71609 251.934 2.36587 251.934L0.63412 251.934C0.283902 251.934 -7.92574e-07 252.404 -7.67244e-07 252.984Z" fill="#C59335"/>
<path d="M-7.67244e-07 225.703L-4.58636e-08 242.207C-2.05336e-08 242.786 0.283902 243.256 0.634121 243.256L2.36587 243.256C2.71609 243.256 2.99999 242.786 2.99999 242.207L2.99999 225.703C2.99999 225.124 2.71609 224.654 2.36587 224.654L0.63412 224.654C0.283902 224.654 -7.92574e-07 225.124 -7.67244e-07 225.703Z" fill="#C59335"/>
<path d="M-7.67244e-07 481.298L-4.58639e-08 497.801C-2.05339e-08 498.381 0.283902 498.851 0.634121 498.851L2.36587 498.851C2.71609 498.851 2.99999 498.381 2.99999 497.801L2.99999 481.298C2.99999 480.719 2.71609 480.249 2.36587 480.249L0.63412 480.249C0.283902 480.249 -7.92574e-07 480.719 -7.67244e-07 481.298Z" fill="#C59335"/>
<path d="M-7.67244e-07 508.31L-4.58639e-08 524.813C-2.05339e-08 525.393 0.283902 525.862 0.634121 525.862L2.36587 525.862C2.71609 525.862 2.99999 525.393 2.99999 524.813L2.99999 508.31C2.99999 507.73 2.71609 507.261 2.36587 507.261L0.63412 507.261C0.283902 507.261 -7.92574e-07 507.73 -7.67244e-07 508.31Z" fill="#C59335"/>
<path d="M-7.67246e-07 1.04903L-4.58636e-08 17.5523C-2.05336e-08 18.1318 0.283902 18.6016 0.634121 18.6016L2.36587 18.6016C2.71609 18.6016 2.99999 18.1318 2.99999 17.5523L2.99999 1.04903C2.99999 0.469545 2.71609 -0.000209927 2.36587 -0.000209912L0.63412 -0.000209836C0.283902 -0.000209821 -7.92576e-07 0.469545 -7.67246e-07 1.04903Z" fill="#C59335"/>
<path d="M-7.67243e-07 28.0618L-4.58636e-08 44.565C-2.05336e-08 45.1445 0.283902 45.6143 0.634121 45.6143L2.36587 45.6143C2.71609 45.6143 2.99999 45.1445 2.99999 44.565L2.99999 28.0618C2.99999 27.4823 2.71609 27.0125 2.36587 27.0125L0.63412 27.0125C0.283902 27.0125 -7.92573e-07 27.4823 -7.67243e-07 28.0618Z" fill="#C59335"/>
<path d="M-7.67243e-07 55.0735L-4.58636e-08 71.5767C-2.05336e-08 72.1562 0.283902 72.626 0.634121 72.626L2.36587 72.626C2.71609 72.626 2.99999 72.1562 2.99999 71.5767L2.99999 55.0735C2.99999 54.494 2.71609 54.0242 2.36587 54.0242L0.63412 54.0242C0.283902 54.0242 -7.92573e-07 54.494 -7.67243e-07 55.0735Z" fill="#C59335"/>
</svg>
