<svg width="24" height="24" viewBox="0 0 24 24" fill="none" xmlns="http://www.w3.org/2000/svg">
<path d="M12.0004 21L15.6004 16.2C14.6004 15.45 13.3504 15 12.0004 15C10.6504 15 9.40039 15.45 8.40039 16.2L12.0004 21Z" fill="#C59335"/>
<path d="M11.9998 9C9.2998 9 6.8098 9.89 4.7998 11.4L6.5998 13.8C8.0998 12.67 9.9698 12 11.9998 12C14.0298 12 15.8998 12.67 17.3998 13.8L19.1998 11.4C17.1898 9.89 14.6998 9 11.9998 9Z" fill="#C59335"/>
<path d="M12.0002 3C7.9502 3 4.2102 4.34 1.2002 6.6L3.0002 9C5.5002 7.12 8.6202 6 12.0002 6C15.3802 6 18.5002 7.12 21.0002 9L22.8002 6.6C19.7902 4.34 16.0502 3 12.0002 3Z" fill="#C59335"/>
</svg>
