<svg width="24" height="22" viewBox="0 0 24 22" fill="none" xmlns="http://www.w3.org/2000/svg">
<path d="M21.2745 0.105469C21.9693 0.105469 22.6357 0.361775 23.127 0.818004C23.6184 1.27423 23.8944 1.89301 23.8944 2.53822V19.5675C23.8944 20.2127 23.6184 20.8314 23.127 21.2877C22.6357 21.7439 21.9693 22.0002 21.2745 22.0002H2.93531C2.24048 22.0002 1.5741 21.7439 1.08278 21.2877C0.591452 20.8314 0.31543 20.2127 0.31543 19.5675V2.53822C0.31543 1.89301 0.591452 1.27423 1.08278 0.818004C1.5741 0.361775 2.24048 0.105469 2.93531 0.105469H21.2745ZM20.6195 18.9593V12.5125C20.6195 11.4608 20.1696 10.4522 19.3687 9.70854C18.5679 8.96489 17.4817 8.54711 16.3491 8.54711C15.2357 8.54711 13.9388 9.17962 13.3101 10.1284V8.77822H9.65531V18.9593H13.3101V12.9625C13.3101 12.0259 14.1222 11.2596 15.1309 11.2596C15.6173 11.2596 16.0837 11.439 16.4276 11.7584C16.7716 12.0778 16.9648 12.5109 16.9648 12.9625V18.9593H20.6195ZM5.398 6.86851C5.98167 6.86851 6.54142 6.65321 6.95413 6.26998C7.36685 5.88675 7.59871 5.36697 7.59871 4.825C7.59871 3.69377 6.61625 2.76933 5.398 2.76933C4.81087 2.76933 4.24778 2.98591 3.83261 3.37142C3.41744 3.75693 3.1842 4.2798 3.1842 4.825C3.1842 5.95623 4.17976 6.86851 5.398 6.86851ZM7.21882 18.9593V8.77822H3.59028V18.9593H7.21882Z" fill="#C59335"/>
</svg>
